<svg width="532" height="155" viewBox="0 0 532 155" fill="none" xmlns="http://www.w3.org/2000/svg">
<path fill-rule="evenodd" clip-rule="evenodd" d="M151.492 68.8013C146.141 69.4515 137.744 69.9603 127.104 68.9442C125.562 68.797 124.264 67.728 123.723 66.2766C111.612 33.728 84.9426 25.4729 57.4305 38.5111C55.9906 39.1935 54.2722 39.0272 53.0465 38.0089C45.0763 31.3871 40.3988 26.6627 33.8164 18.8504C32.9405 17.8109 32.6187 16.3712 33.3691 15.2378C44.7941 -2.01669 134.261 -21.6221 156.503 61.125C157.475 64.7395 155.207 68.3499 151.492 68.8013ZM127.471 86.1782H152.544C154.95 86.1782 156.818 88.2938 156.405 90.664C150.225 126.12 124.749 150.068 93.9204 154.593C91.0474 155.015 88.5755 152.706 88.5755 149.803V125.519C88.5755 123.818 89.6616 122.308 91.2518 121.704C109.761 114.668 117.847 105.085 123.635 88.9213C124.217 87.2948 125.743 86.1782 127.471 86.1782ZM20.1654 33.5366C24.4052 36.5428 31.5724 42.2769 39.4664 51.3804C40.481 52.5505 40.6843 54.2202 40.0725 55.6429C26.6448 86.8658 38.5135 110.869 66.0516 120.829C68.6739 121.778 70.6709 124.044 70.9312 126.821C71.5807 133.748 71.4991 138.913 71.3969 145.378C71.3714 146.989 71.3447 148.681 71.3276 150.501C71.3072 152.686 69.9082 154.658 67.7248 154.744C42.8711 155.727 -28.835 110.045 13.7014 35.1045C15.0211 32.7795 17.9845 31.9903 20.1654 33.5366Z" fill="white"/>
<path d="M66.8793 64.4498V97.3235C66.8793 99.0778 65.4571 100.5 63.7028 100.5C61.9485 100.5 60.5263 99.0778 60.5263 97.3235V84.6649H54.5269C53.1313 84.6649 52 83.5336 52 82.138C52 80.7424 53.1313 79.6111 54.5269 79.6111H60.5263V73.5466H54.5269C53.1313 73.5466 52 72.4153 52 71.0197C52 69.6242 53.1313 68.4928 54.5269 68.4928H60.5263V57.6469C60.5263 55.3566 62.383 53.5 64.6732 53.5C66.0524 53.5 67.3413 54.1857 68.1121 55.3294L91.2879 89.7186V56.6765C91.2879 54.9222 92.7101 53.5 94.4644 53.5C96.2187 53.5 97.6409 54.9222 97.6409 56.6765V68.4928H103.473C104.869 68.4928 106 69.6242 106 71.0197C106 72.4153 104.869 73.5466 103.473 73.5466H97.6409V79.948H103.473C104.869 79.948 106 81.0794 106 82.4749C106 83.8705 104.869 85.0018 103.473 85.0018H97.6409V96.0396C97.6409 98.503 95.6439 100.5 93.1805 100.5C91.6853 100.5 90.2896 99.7508 89.4632 98.5048L66.8793 64.4498Z" fill="white"/>
<path d="M228.305 40.9062V112H214.926V40.9062H228.305ZM250.375 40.9062V51.502H193.1V40.9062H250.375ZM267.807 69.959V112H254.916V59.168H267.123L267.807 69.959ZM283.871 58.8262L283.676 70.8379C282.96 70.7077 282.146 70.61 281.234 70.5449C280.355 70.4798 279.525 70.4473 278.744 70.4473C276.758 70.4473 275.017 70.724 273.52 71.2773C272.022 71.7982 270.769 72.5632 269.76 73.5723C268.783 74.5814 268.035 75.8184 267.514 77.2832C266.993 78.7155 266.7 80.3431 266.635 82.166L263.852 81.8242C263.852 78.4714 264.193 75.3626 264.877 72.498C265.561 69.6335 266.553 67.127 267.855 64.9785C269.158 62.8301 270.785 61.1699 272.738 59.998C274.724 58.7936 277.003 58.1914 279.574 58.1914C280.29 58.1914 281.055 58.2565 281.869 58.3867C282.715 58.4844 283.383 58.6309 283.871 58.8262ZM318.393 100.77V76.4043C318.393 74.6139 318.083 73.0677 317.465 71.7656C316.846 70.4635 315.902 69.4544 314.633 68.7383C313.363 68.0221 311.752 67.6641 309.799 67.6641C308.074 67.6641 306.56 67.957 305.258 68.543C303.988 69.1289 303.012 69.959 302.328 71.0332C301.645 72.0749 301.303 73.2793 301.303 74.6465H288.363C288.363 72.4655 288.884 70.3984 289.926 68.4453C290.967 66.4596 292.449 64.7018 294.369 63.1719C296.322 61.6094 298.65 60.3887 301.352 59.5098C304.086 58.6309 307.146 58.1914 310.531 58.1914C314.535 58.1914 318.1 58.875 321.225 60.2422C324.382 61.5768 326.856 63.5951 328.646 66.2969C330.469 68.9987 331.381 72.4004 331.381 76.502V99.5488C331.381 102.186 331.544 104.448 331.869 106.336C332.227 108.191 332.748 109.803 333.432 111.17V112H320.297C319.678 110.665 319.206 108.973 318.881 106.922C318.555 104.839 318.393 102.788 318.393 100.77ZM320.199 79.8223L320.297 87.4883H312.143C310.124 87.4883 308.35 87.6999 306.82 88.123C305.29 88.5137 304.037 89.0996 303.061 89.8809C302.084 90.6296 301.352 91.541 300.863 92.6152C300.375 93.6569 300.131 94.8451 300.131 96.1797C300.131 97.4818 300.424 98.6536 301.01 99.6953C301.628 100.737 302.507 101.567 303.646 102.186C304.818 102.771 306.186 103.064 307.748 103.064C310.027 103.064 312.012 102.609 313.705 101.697C315.398 100.753 316.716 99.6139 317.66 98.2793C318.604 96.9447 319.109 95.6751 319.174 94.4707L322.885 100.037C322.429 101.372 321.745 102.788 320.834 104.285C319.923 105.783 318.751 107.182 317.318 108.484C315.886 109.786 314.161 110.861 312.143 111.707C310.124 112.553 307.781 112.977 305.111 112.977C301.693 112.977 298.633 112.293 295.932 110.926C293.23 109.559 291.098 107.687 289.535 105.311C287.973 102.934 287.191 100.232 287.191 97.2051C287.191 94.4056 287.712 91.9316 288.754 89.7832C289.796 87.6348 291.342 85.8281 293.393 84.3633C295.443 82.8659 297.982 81.7428 301.01 80.9941C304.07 80.2129 307.569 79.8223 311.508 79.8223H320.199ZM364.682 102.82C366.505 102.82 368.132 102.462 369.564 101.746C370.997 101.03 372.136 100.021 372.982 98.7188C373.861 97.4167 374.333 95.903 374.398 94.1777H386.557C386.492 97.7585 385.482 100.965 383.529 103.797C381.576 106.629 378.972 108.875 375.717 110.535C372.494 112.163 368.881 112.977 364.877 112.977C360.808 112.977 357.26 112.293 354.232 110.926C351.205 109.559 348.682 107.654 346.664 105.213C344.678 102.771 343.181 99.9395 342.172 96.7168C341.195 93.4941 340.707 90.0436 340.707 86.3652V84.8027C340.707 81.1243 341.195 77.6738 342.172 74.4512C343.181 71.2285 344.678 68.3965 346.664 65.9551C348.682 63.5137 351.205 61.6094 354.232 60.2422C357.26 58.875 360.792 58.1914 364.828 58.1914C369.092 58.1914 372.836 59.0215 376.059 60.6816C379.314 62.3418 381.853 64.6855 383.676 67.7129C385.531 70.7402 386.492 74.3047 386.557 78.4062H374.398C374.333 76.5182 373.91 74.8255 373.129 73.3281C372.348 71.8307 371.241 70.6263 369.809 69.7148C368.376 68.8034 366.635 68.3477 364.584 68.3477C362.403 68.3477 360.58 68.8034 359.115 69.7148C357.683 70.6263 356.56 71.8796 355.746 73.4746C354.965 75.0371 354.411 76.7949 354.086 78.748C353.793 80.6686 353.646 82.6868 353.646 84.8027V86.3652C353.646 88.5137 353.793 90.5645 354.086 92.5176C354.411 94.4707 354.965 96.2285 355.746 97.791C356.56 99.321 357.683 100.542 359.115 101.453C360.58 102.365 362.436 102.82 364.682 102.82ZM408.041 36.9512V112H395.15V36.9512H408.041ZM441.146 59.168L418.148 84.998L405.697 97.6445L401.596 87.6348L411.215 75.5254L425.57 59.168H441.146ZM427.963 112L411.605 87.3906L420.199 79.041L442.904 112H427.963ZM470.736 112.977C466.732 112.977 463.135 112.326 459.945 111.023C456.755 109.721 454.037 107.915 451.791 105.604C449.577 103.26 447.868 100.542 446.664 97.4492C445.492 94.3242 444.906 90.9714 444.906 87.3906V85.4375C444.906 81.3685 445.492 77.6738 446.664 74.3535C447.836 71.0007 449.496 68.1198 451.645 65.7109C453.793 63.3021 456.365 61.4466 459.359 60.1445C462.354 58.8424 465.658 58.1914 469.271 58.1914C473.015 58.1914 476.319 58.8262 479.184 60.0957C482.048 61.3327 484.441 63.0905 486.361 65.3691C488.282 67.6478 489.73 70.3822 490.707 73.5723C491.684 76.7298 492.172 80.2292 492.172 84.0703V89.4902H450.766V80.6035H479.477V79.627C479.411 77.5762 479.021 75.7044 478.305 74.0117C477.589 72.2865 476.482 70.9193 474.984 69.9102C473.487 68.8685 471.55 68.3477 469.174 68.3477C467.253 68.3477 465.577 68.7708 464.145 69.6172C462.745 70.431 461.573 71.6029 460.629 73.1328C459.717 74.6302 459.034 76.4206 458.578 78.5039C458.122 80.5872 457.895 82.8984 457.895 85.4375V87.3906C457.895 89.6042 458.188 91.6549 458.773 93.543C459.392 95.431 460.287 97.0749 461.459 98.4746C462.663 99.8418 464.096 100.916 465.756 101.697C467.449 102.446 469.369 102.82 471.518 102.82C474.219 102.82 476.661 102.299 478.842 101.258C481.055 100.184 482.976 98.6048 484.604 96.5215L491.098 103.26C489.991 104.887 488.493 106.45 486.605 107.947C484.75 109.445 482.504 110.665 479.867 111.609C477.23 112.521 474.187 112.977 470.736 112.977ZM513.705 69.959V112H500.814V59.168H513.021L513.705 69.959ZM529.77 58.8262L529.574 70.8379C528.858 70.7077 528.044 70.61 527.133 70.5449C526.254 70.4798 525.424 70.4473 524.643 70.4473C522.657 70.4473 520.915 70.724 519.418 71.2773C517.921 71.7982 516.667 72.5632 515.658 73.5723C514.682 74.5814 513.933 75.8184 513.412 77.2832C512.891 78.7155 512.598 80.3431 512.533 82.166L509.75 81.8242C509.75 78.4714 510.092 75.3626 510.775 72.498C511.459 69.6335 512.452 67.127 513.754 64.9785C515.056 62.8301 516.684 61.1699 518.637 59.998C520.622 58.7936 522.901 58.1914 525.473 58.1914C526.189 58.1914 526.954 58.2565 527.768 58.3867C528.614 58.4844 529.281 58.6309 529.77 58.8262Z" fill="white"/>
</svg>
