<svg width="528" height="121" viewBox="0 0 528 121" fill="none" xmlns="http://www.w3.org/2000/svg">
<path d="M244.4 28C245.4 28 246.267 28.1 247 28.3C247.8 28.5 248.433 29 248.9 29.8C249.367 30.5333 249.6 31.7333 249.6 33.4C249.6 35.0667 249.367 36.3 248.9 37.1C248.433 37.8333 247.8 38.3 247 38.5C246.2 38.6333 245.3 38.7 244.3 38.7H225.9V92C225.9 93.1333 225.767 94.1667 225.5 95.1C225.3 95.9667 224.767 96.6667 223.9 97.2C223.1 97.7333 221.733 98 219.8 98C218 98 216.667 97.7 215.8 97.1C214.933 96.5667 214.4 95.8667 214.2 95C214 94.0667 213.9 93.0333 213.9 91.9V38.7H195.3C194.367 38.7 193.5 38.6 192.7 38.4C191.9 38.2 191.233 37.7333 190.7 37C190.233 36.2667 190 35.0667 190 33.4C190 31.7333 190.233 30.5333 190.7 29.8C191.167 29 191.8 28.5 192.6 28.3C193.467 28.1 194.367 28 195.3 28H244.4ZM251.713 98C249.913 98 248.58 97.7 247.713 97.1C246.913 96.5667 246.413 95.8333 246.213 94.9C246.013 93.9667 245.913 92.9333 245.913 91.8V54.7C245.913 53.5 246.013 52.4667 246.213 51.6C246.413 50.6667 246.913 49.9667 247.713 49.5C248.58 48.9667 249.947 48.7 251.813 48.7C253.613 48.7 254.913 48.9333 255.713 49.4C256.58 49.8667 257.113 50.4667 257.313 51.2C257.58 51.8667 257.713 52.5333 257.713 53.2L256.913 55C257.247 54.4667 257.713 53.8333 258.313 53.1C258.913 52.3 259.713 51.5333 260.713 50.8C261.713 50 262.913 49.3667 264.313 48.9C265.713 48.3667 267.38 48.1 269.313 48.1C270.113 48.1 270.947 48.2 271.813 48.4C272.747 48.5333 273.647 48.7667 274.513 49.1C275.447 49.3667 276.28 49.7333 277.013 50.2C277.747 50.6667 278.313 51.2333 278.713 51.9C279.113 52.5 279.313 53.2 279.313 54C279.313 56.1333 278.78 57.9333 277.713 59.4C276.647 60.8667 275.38 61.6 273.913 61.6C272.913 61.6 272.18 61.5 271.713 61.3C271.247 61.1 270.847 60.8667 270.513 60.6C270.247 60.3333 269.813 60.1 269.213 59.9C268.68 59.7 267.813 59.6 266.613 59.6C265.613 59.6 264.58 59.7667 263.513 60.1C262.513 60.4333 261.58 60.9333 260.713 61.6C259.847 62.2667 259.147 63.1333 258.613 64.2C258.08 65.2 257.813 66.3667 257.813 67.7V92C257.813 93.1333 257.713 94.1667 257.513 95.1C257.313 95.9667 256.78 96.6667 255.913 97.2C255.047 97.7333 253.647 98 251.713 98ZM324.313 97.8C322.38 97.8 320.947 97.4333 320.013 96.7C319.08 95.9667 318.613 94.9667 318.613 93.7L319.313 90.4C318.78 91.2667 317.88 92.3 316.613 93.5C315.347 94.6333 313.68 95.6667 311.613 96.6C309.547 97.4667 307.047 97.9 304.113 97.9C300.98 97.9 298.013 97.2667 295.213 96C292.48 94.6667 290.047 92.8667 287.913 90.6C285.847 88.2667 284.18 85.6333 282.913 82.7C281.713 79.7 281.113 76.5 281.113 73.1C281.113 69.8333 281.713 66.7667 282.913 63.9C284.18 60.9667 285.88 58.3667 288.013 56.1C290.147 53.8333 292.58 52.0667 295.313 50.8C298.113 49.4667 301.047 48.8 304.113 48.8C306.847 48.8 309.147 49.1667 311.013 49.9C312.947 50.6333 314.58 51.5667 315.913 52.7C317.247 53.7667 318.347 54.9 319.213 56.1L318.613 53.2C318.613 51.7333 319.08 50.6333 320.013 49.9C320.947 49.1 322.413 48.7 324.413 48.7C326.28 48.7 327.613 49 328.413 49.6C329.213 50.1333 329.713 50.9 329.913 51.9C330.113 52.8333 330.213 53.9 330.213 55.1V91.7C330.213 92.8333 330.113 93.8667 329.913 94.8C329.713 95.7333 329.18 96.4667 328.313 97C327.513 97.5333 326.18 97.8 324.313 97.8ZM305.913 86.2C308.18 86.2 310.213 85.6333 312.013 84.5C313.813 83.3667 315.247 81.8333 316.313 79.9C317.447 77.9 318.013 75.7 318.013 73.3C318.013 70.7 317.447 68.4333 316.313 66.5C315.18 64.5667 313.68 63.0667 311.813 62C310.013 60.8667 307.98 60.3 305.713 60.3C303.247 60.3 301.047 60.9 299.113 62.1C297.18 63.2333 295.647 64.8 294.513 66.8C293.447 68.7333 292.913 70.9333 292.913 73.4C292.913 75.8 293.48 77.9667 294.613 79.9C295.747 81.8333 297.28 83.3667 299.213 84.5C301.213 85.6333 303.447 86.2 305.913 86.2ZM364.047 98.2C360.847 98.2 357.714 97.6667 354.647 96.6C351.647 95.4667 348.914 93.8333 346.447 91.7C344.047 89.5667 342.114 86.9667 340.647 83.9C339.247 80.7667 338.547 77.2333 338.547 73.3C338.547 69.3667 339.247 65.8667 340.647 62.8C342.114 59.7333 344.047 57.1333 346.447 55C348.847 52.8667 351.547 51.2333 354.547 50.1C357.547 48.9667 360.647 48.4 363.847 48.4C366.18 48.4 368.38 48.7333 370.447 49.4C372.58 50.0667 374.414 50.8667 375.947 51.8C377.48 52.7333 378.58 53.6667 379.247 54.6C380.114 55.4 380.847 56.1667 381.447 56.9C382.047 57.6333 382.247 58.5333 382.047 59.6C381.847 60.2667 381.547 60.9 381.147 61.5C380.747 62.0333 380.247 62.6 379.647 63.2C378.047 65 376.48 65.6667 374.947 65.2C374.08 64.7333 373.214 64.2333 372.347 63.7C371.48 63.1667 370.58 62.6667 369.647 62.2C368.78 61.6667 367.88 61.2333 366.947 60.9C366.014 60.5667 364.98 60.4 363.847 60.4C361.314 60.4 359.047 60.9667 357.047 62.1C355.114 63.1667 353.58 64.6667 352.447 66.6C351.38 68.5333 350.847 70.7667 350.847 73.3C350.847 75.8333 351.38 78.1 352.447 80.1C353.58 82.0333 355.114 83.5667 357.047 84.7C358.98 85.7667 361.18 86.3 363.647 86.3C364.847 86.3 365.98 86.1667 367.047 85.9C368.18 85.5667 369.18 85.1667 370.047 84.7C370.914 84.1667 371.614 83.6333 372.147 83.1C372.88 82.6333 373.547 82.2 374.147 81.8C374.747 81.4 375.38 81.2 376.047 81.2C376.847 81.2 377.614 81.5 378.347 82.1C379.147 82.6333 380.014 83.5 380.947 84.7C381.814 85.7 382.28 86.6667 382.347 87.6C382.48 88.5333 382.28 89.4333 381.747 90.3C381.28 91.1667 380.48 91.9667 379.347 92.7C378.547 93.5 377.347 94.3333 375.747 95.2C374.214 96 372.414 96.7 370.347 97.3C368.347 97.9 366.247 98.2 364.047 98.2ZM430.13 87.2C431.864 88.6667 432.764 90.0333 432.83 91.3C432.964 92.5667 432.297 94.0333 430.83 95.7C429.697 96.9667 428.697 97.8 427.83 98.2C426.964 98.6 426.097 98.6 425.23 98.2C424.364 97.8667 423.33 97.2 422.13 96.2L403.03 80.1V92C403.03 93.0667 402.897 94.0667 402.63 95C402.43 95.9333 401.897 96.6667 401.03 97.2C400.23 97.7333 398.897 98 397.03 98C395.164 98 393.797 97.7 392.93 97.1C392.13 96.5667 391.63 95.8333 391.43 94.9C391.23 93.9667 391.13 92.9667 391.13 91.9V32.2C391.13 31.0667 391.23 30.0667 391.43 29.2C391.697 28.2667 392.23 27.5333 393.03 27C393.897 26.4 395.264 26.1 397.13 26.1C398.997 26.1 400.33 26.4 401.13 27C401.93 27.5333 402.43 28.2667 402.63 29.2C402.897 30.0667 403.03 31.1 403.03 32.3V65.1L416.83 51.7C417.897 50.7 418.897 50.0333 419.83 49.7C420.764 49.3 421.664 49.2667 422.53 49.6C423.464 49.8667 424.43 50.5667 425.43 51.7C427.097 53.5 427.897 55 427.83 56.2C427.764 57.3333 426.93 58.7 425.33 60.3L411.83 72.8L430.13 87.2ZM461.41 98.6C457.077 98.6 453.277 97.9 450.01 96.5C446.81 95.1 444.11 93.2 441.91 90.8C439.777 88.3333 438.143 85.6 437.01 82.6C435.943 79.5333 435.41 76.3667 435.41 73.1C435.41 68.3 436.51 64.0333 438.71 60.3C440.91 56.5667 443.943 53.6333 447.81 51.5C451.743 49.3667 456.243 48.3 461.31 48.3C464.91 48.3 468.077 48.8667 470.81 50C473.543 51.1333 475.81 52.6333 477.61 54.5C479.477 56.3 480.877 58.3 481.81 60.5C482.81 62.7 483.31 64.8333 483.31 66.9C483.31 70.4333 482.443 73 480.71 74.6C479.043 76.2 476.943 77 474.41 77H448.01C448.077 79.2667 448.777 81.2333 450.11 82.9C451.51 84.5667 453.243 85.8667 455.31 86.8C457.443 87.6667 459.61 88.1 461.81 88.1C463.477 88.1 464.943 88 466.21 87.8C467.543 87.6 468.677 87.3667 469.61 87.1C470.543 86.7667 471.343 86.4333 472.01 86.1C472.743 85.7667 473.41 85.4667 474.01 85.2C474.61 84.9333 475.177 84.7667 475.71 84.7C476.443 84.6333 477.177 84.8 477.91 85.2C478.643 85.6 479.243 86.3 479.71 87.3C480.11 87.9667 480.377 88.6 480.51 89.2C480.71 89.7333 480.81 90.2667 480.81 90.8C480.81 92.1333 480.01 93.4 478.41 94.6C476.81 95.7333 474.543 96.6667 471.61 97.4C468.743 98.2 465.343 98.6 461.41 98.6ZM448.01 69.9H468.51C469.643 69.9 470.51 69.7333 471.11 69.4C471.71 69 472.01 68.2 472.01 67C472.01 65.4667 471.543 64.1 470.61 62.9C469.677 61.6333 468.41 60.6667 466.81 60C465.21 59.2667 463.343 58.9 461.21 58.9C458.743 58.9 456.51 59.4 454.51 60.4C452.51 61.3333 450.91 62.6333 449.71 64.3C448.577 65.9667 448.01 67.8333 448.01 69.9ZM497.416 98C495.616 98 494.283 97.7 493.416 97.1C492.616 96.5667 492.116 95.8333 491.916 94.9C491.716 93.9667 491.616 92.9333 491.616 91.8V54.7C491.616 53.5 491.716 52.4667 491.916 51.6C492.116 50.6667 492.616 49.9667 493.416 49.5C494.283 48.9667 495.65 48.7 497.516 48.7C499.316 48.7 500.616 48.9333 501.416 49.4C502.283 49.8667 502.816 50.4667 503.016 51.2C503.283 51.8667 503.416 52.5333 503.416 53.2L502.616 55C502.95 54.4667 503.416 53.8333 504.016 53.1C504.616 52.3 505.416 51.5333 506.416 50.8C507.416 50 508.616 49.3667 510.016 48.9C511.416 48.3667 513.083 48.1 515.016 48.1C515.816 48.1 516.65 48.2 517.516 48.4C518.45 48.5333 519.35 48.7667 520.216 49.1C521.15 49.3667 521.983 49.7333 522.716 50.2C523.45 50.6667 524.016 51.2333 524.416 51.9C524.816 52.5 525.016 53.2 525.016 54C525.016 56.1333 524.483 57.9333 523.416 59.4C522.35 60.8667 521.083 61.6 519.616 61.6C518.616 61.6 517.883 61.5 517.416 61.3C516.95 61.1 516.55 60.8667 516.216 60.6C515.95 60.3333 515.516 60.1 514.916 59.9C514.383 59.7 513.516 59.6 512.316 59.6C511.316 59.6 510.283 59.7667 509.216 60.1C508.216 60.4333 507.283 60.9333 506.416 61.6C505.55 62.2667 504.85 63.1333 504.316 64.2C503.783 65.2 503.516 66.3667 503.516 67.7V92C503.516 93.1333 503.416 94.1667 503.216 95.1C503.016 95.9667 502.483 96.6667 501.616 97.2C500.75 97.7333 499.35 98 497.416 98Z" fill="white"/>
<path d="M115.543 67.4104H99.1627V51.6761H115.543C118.005 51.6761 120 49.684 120 47.2235C120 44.7628 118.005 42.7695 115.543 42.7695H99.1627V20.9373C99.1627 17.7504 98.5326 15.4112 97.2904 13.9863C96.1099 12.6308 94.5577 12 92.4083 12C90.3573 12 88.8636 12.6264 87.7059 13.9735C86.4782 15.3998 85.8551 17.7433 85.8551 20.9387V42.7721H55.042L41.9406 22.9579C40.8193 21.1896 39.765 19.5332 38.7412 17.9432C37.8195 16.5113 36.9204 15.3455 36.0712 14.475C35.3194 13.7043 34.4627 13.1078 33.4606 12.6494C32.5152 12.218 31.3131 12.0015 29.8911 12.0015C28.0773 12.0015 26.4308 12.4981 24.8542 13.5184C23.2941 14.5277 22.2156 15.7754 21.5569 17.3332C20.9788 18.8137 20.6729 21.0823 20.6729 24.0106V42.7707H4.45482C1.99395 42.7709 0 44.7642 0 47.2247C0 49.6852 1.99395 51.6773 4.45507 51.6773H20.6731V67.4133H4.45507C1.99395 67.4133 0 69.4061 0 71.8673C0 74.327 1.99395 76.3184 4.45507 76.3184H20.6731V101.245C20.6731 104.338 21.3233 106.653 22.6112 108.125C23.836 109.528 25.3888 110.179 27.4977 110.179C29.5322 110.179 31.073 109.525 32.3507 108.119C33.6592 106.679 34.321 104.365 34.321 101.245V76.3184H62.2034L77.2919 99.4423C78.3411 100.971 79.4244 102.514 80.5048 104.027C81.4795 105.385 82.543 106.582 83.665 107.582C84.6755 108.486 85.7588 109.149 86.8849 109.553C88.0441 109.97 89.399 110.182 90.9025 110.182C94.9831 110.182 99.1622 108.933 99.1622 99.6741V76.3184H115.543C118.004 76.3184 120 74.3241 120 71.8644C120 69.4047 118.005 67.4104 115.543 67.4104ZM85.8548 51.6758V67.4101H71.3364L60.9336 51.6758H85.8548ZM34.3212 33.5966L40.3084 42.7695H34.3212V33.5966ZM34.3212 67.4104V51.6761H46.1219L56.3905 67.4104H34.3212ZM85.8548 89.3719L77.2264 76.3184H85.8548V89.3719Z" fill="white"/>
</svg>
